# xmcd
#
# Track frame offsets: 
#        183
#        20108
#        32853
#        65643
#        87693
#        112445
#        120985
#        130195
#        146953
#        164383
#        204095
#        243573
#        254645
#        267293
#        276348
#
# Disc length: 3970 seconds
#
# Revision: 3
# Processed by: cddbd v1.5.2PL0 Copyright (c) Steve Scherf et al.
# Submitted via: ExactAudioCopyFreeDBPlugin 1.0
#
DISCID=f30f800f
DTITLE=Moralt, Schwarzkopf, Loose, Dermota, Klein - Die Entführung aus
DTITLE=dem Serail (Moralt) 1
DYEAR=1945
DGENRE=Opera
TTITLE0=Overture
TTITLE1=Hier soll ich dich denn sehen
TTITLE2=Wer ein Liebchen hat gefunden
TTITLE3=Solche hergelaufne Laffen
TTITLE4=Konstanze, dich wiederzusehen
TTITLE5=Singt dem großen Bassa Lieder
TTITLE6=Marsch, marsch, marsch! Trollt euch fort
TTITLE7=Akt 2 - Durch Zärtlichkeit und Schmeicheln
TTITLE8=Ich gehe, doch rate ich dir
TTITLE9=Welcher Kummer herrscht in meiner Seele
TTITLE10=Martern aller Arten
TTITLE11=Welche Wonne, welche Lust
TTITLE12=Frisch zum Kampfe
TTITLE13=Vivat Bacchus!
TTITLE14=Wenn der Freude Tränen fließen
EXTD=
EXTT0=
EXTT1=
EXTT2=
EXTT3=
EXTT4=
EXTT5=
EXTT6=
EXTT7=
EXTT8=
EXTT9=
EXTT10=
EXTT11=
EXTT12=
EXTT13=
EXTT14=
PLAYORDER=
